<svg width="24" height="24" viewBox="0 0 24 24" fill="none" xmlns="http://www.w3.org/2000/svg">
<path fill-rule="evenodd" clip-rule="evenodd" d="M10.4864 4.11413C11.1608 2.95186 12.8392 2.95187 13.5136 4.11413L15.579 7.67349C15.7694 8.00158 16.0984 8.22547 16.4735 8.28212L19.9031 8.80012C21.3981 9.02592 21.9225 10.9135 20.7582 11.8781L18.2593 13.9484C17.9086 14.239 17.7437 14.6974 17.8289 15.1448L18.5289 18.8208C18.8031 20.2607 17.2914 21.3795 15.9944 20.6966L12.5824 18.9C12.2179 18.7081 11.7822 18.7081 11.4176 18.9L8.0056 20.6966C6.70859 21.3795 5.19696 20.2607 5.47116 18.8208L6.17114 15.1448C6.25634 14.6974 6.09142 14.239 5.74068 13.9484L3.24178 11.8781C2.0775 10.9135 2.6019 9.02592 4.09689 8.80012L7.52654 8.28212C7.9016 8.22547 8.23065 8.00158 8.42103 7.67349L10.4864 4.11413ZM12.2162 4.86696C12.1199 4.70092 11.8801 4.70092 11.7838 4.86696L9.71843 8.42632C9.29961 9.14811 8.5757 9.64067 7.75056 9.76529L4.32091 10.2833C4.10734 10.3156 4.03243 10.5852 4.19875 10.723L6.69765 12.7933C7.46929 13.4326 7.83211 14.441 7.64466 15.4254L6.94468 19.1014C6.90551 19.3071 7.12146 19.4669 7.30675 19.3693L10.7188 17.5727C11.5207 17.1505 12.4793 17.1505 13.2812 17.5727L16.6933 19.3693C16.8786 19.4669 17.0945 19.3071 17.0553 19.1014L16.3554 15.4254C16.1679 14.441 16.5307 13.4326 17.3024 12.7933L19.8013 10.723C19.9676 10.5852 19.8927 10.3156 19.6791 10.2833L16.2495 9.76529C15.4243 9.64067 14.7004 9.14811 14.2816 8.42632L12.2162 4.86696Z" fill="black"/>
</svg>
